<?xml version="1.0" encoding="UTF-8" standalone="no"?><!DOCTYPE svg PUBLIC "-//W3C//DTD SVG 1.1//EN" "http://www.w3.org/Graphics/SVG/1.1/DTD/svg11.dtd"><svg width="100%" height="100%" viewBox="0 0 1084 1084" version="1.1" xmlns="http://www.w3.org/2000/svg" xmlns:xlink="http://www.w3.org/1999/xlink" xml:space="preserve" xmlns:serif="http://www.serif.com/" style="fill-rule:evenodd;clip-rule:evenodd;stroke-linecap:round;stroke-linejoin:round;stroke-miterlimit:1.5;"><rect id="ambition_round_gradient_border" x="0" y="0" width="1083.33" height="1083.33" style="fill:none;"/><path d="M566.667,56.1c-15.47,-8.931 -34.53,-8.931 -50,0c-76.453,44.14 -306.56,176.993 -383.013,221.133c-15.47,8.932 -25,25.438 -25,43.301l-0,442.265c-0,17.863 9.53,34.37 25,43.301c76.453,44.14 306.56,176.993 383.013,221.133c15.47,8.932 34.53,8.932 50,-0c76.452,-44.14 306.56,-176.993 383.012,-221.133c15.47,-8.931 25,-25.438 25,-43.301c0,-88.28 0,-353.985 0,-442.265c0,-17.863 -9.53,-34.369 -25,-43.301c-76.452,-44.14 -306.56,-176.993 -383.012,-221.133Z" style="fill:url(#_Linear1);stroke:url(#_Linear2);stroke-width:72.08px;"/><path d="M758.173,195.534c0,-17.863 -9.53,-34.369 -25,-43.301c-20.85,-12.038 -47.169,-27.233 -47.169,-27.233l263.675,152.233c15.47,8.932 25,25.438 25,43.301c0,88.28 0,353.985 0,442.265c0,17.863 -9.53,34.37 -25,43.301c-76.452,44.14 -306.56,176.993 -383.012,221.133c-15.47,8.932 -34.53,8.932 -50,-0c-41.667,-24.056 -124.84,-72.076 -166.507,-96.133c-15.47,-8.931 -25,-25.438 -25,-43.301l0,-192.265c0,-17.863 9.53,-34.369 25,-43.301c76.453,-44.14 306.56,-176.993 383.013,-221.133c15.47,-8.931 25,-25.438 25,-43.301c0,-48.112 0,-144.152 0,-192.265Zm-191.506,706.699c-15.47,8.932 -34.53,8.932 -50,-0c-17.492,-10.099 -40.762,-23.534 -58.253,-33.633c-15.471,-8.931 -25.001,-25.438 -25.001,-43.301l0,-67.265c0,-17.863 9.53,-34.369 25.001,-43.301c17.491,-10.099 40.761,-23.534 58.253,-33.633c15.47,-8.931 34.53,-8.931 50,0c17.491,10.099 40.762,23.534 58.253,33.633c15.47,8.932 25,25.438 25,43.301l-0,67.265c-0,17.863 -9.53,34.37 -25,43.301c-17.491,10.099 -40.762,23.534 -58.253,33.633Zm-0,-500c-15.47,8.932 -34.53,8.932 -50,-0c-17.492,-10.099 -40.762,-23.534 -58.253,-33.633c-15.471,-8.931 -25.001,-25.438 -25.001,-43.301l0,-67.265c0,-17.863 9.53,-34.369 25.001,-43.301c17.491,-10.099 40.761,-23.534 58.253,-33.633c15.47,-8.931 34.53,-8.931 50,0c17.491,10.099 40.762,23.534 58.253,33.633c15.47,8.932 25,25.438 25,43.301l-0,67.265c-0,17.863 -9.53,34.37 -25,43.301c-17.491,10.099 -40.762,23.534 -58.253,33.633Z" style="fill:#010001;"/><defs><linearGradient id="_Linear1" x1="0" y1="0" x2="1" y2="0" gradientUnits="userSpaceOnUse" gradientTransform="matrix(866.025,0,0,1000,108.654,541.667)"><stop offset="0" style="stop-color:#e2ff70;stop-opacity:1"/><stop offset="0.25" style="stop-color:#adff2f;stop-opacity:1"/><stop offset="0.5" style="stop-color:#adfd2d;stop-opacity:1"/><stop offset="0.75" style="stop-color:#7ae105;stop-opacity:1"/><stop offset="1" style="stop-color:#56b007;stop-opacity:1"/></linearGradient><linearGradient id="_Linear2" x1="0" y1="0" x2="1" y2="0" gradientUnits="userSpaceOnUse" gradientTransform="matrix(866.025,0,0,1000,108.654,541.667)"><stop offset="0" style="stop-color:#e2ff70;stop-opacity:1"/><stop offset="0.25" style="stop-color:#adff2f;stop-opacity:1"/><stop offset="0.5" style="stop-color:#adff2f;stop-opacity:1"/><stop offset="0.75" style="stop-color:#7ae105;stop-opacity:1"/><stop offset="1" style="stop-color:#56b007;stop-opacity:1"/></linearGradient></defs></svg>