<?xml version="1.0" encoding="UTF-8" standalone="no"?>
<!DOCTYPE svg PUBLIC "-//W3C//DTD SVG 1.1//EN" "http://www.w3.org/Graphics/SVG/1.1/DTD/svg11.dtd">
<svg width="100%" height="100%" viewBox="0 0 240 240" version="1.1" xmlns="http://www.w3.org/2000/svg" xmlns:xlink="http://www.w3.org/1999/xlink" xml:space="preserve" xmlns:serif="http://www.serif.com/" style="fill-rule:evenodd;clip-rule:evenodd;stroke-linejoin:round;stroke-miterlimit:2;">
    <g transform="matrix(1,0,0,1,-8,0)">
        <g id="ambition_sharp_flat_clean" transform="matrix(1,0,0,1,8,3.55271e-15)">
            <rect x="0" y="0" width="240" height="240" style="fill:none;"/>
            <clipPath id="_clip1">
                <rect x="0" y="0" width="240" height="240"/>
            </clipPath>
            <g clip-path="url(#_clip1)">
                <g transform="matrix(1,0,0,1,-1640,-300)">
                    <path d="M1760,300L1656.08,360L1656.08,480L1708.04,510L1811.96,510L1811.96,450L1863.92,420L1811.96,390L1811.96,330L1760,300Z" style="fill:rgb(173,253,45);"/>
                </g>
                <g transform="matrix(1,0,0,1,-660,-3590)">
                    <path d="M831.962,3620L814.641,3610L883.923,3650L883.923,3770L780,3830L728.038,3800L728.038,3740L831.962,3680L831.962,3620ZM780,3800L754.019,3785L754.019,3755L780,3740L805.981,3755L805.981,3785L780,3800ZM780,3680L754.019,3665L754.019,3635L780,3620L805.981,3635L805.981,3665L780,3680Z" style="fill:rgb(1,0,1);"/>
                </g>
            </g>
        </g>
    </g>
</svg>
