<?xml version="1.0" encoding="UTF-8" standalone="no"?><!DOCTYPE svg PUBLIC "-//W3C//DTD SVG 1.1//EN" "http://www.w3.org/Graphics/SVG/1.1/DTD/svg11.dtd"><svg width="100%" height="100%" viewBox="0 0 1000 1000" version="1.1" xmlns="http://www.w3.org/2000/svg" xmlns:xlink="http://www.w3.org/1999/xlink" xml:space="preserve" xmlns:serif="http://www.serif.com/" style="fill-rule:evenodd;clip-rule:evenodd;stroke-linejoin:round;stroke-miterlimit:2;"><rect id="ambition_sharp_flat_clean" x="0" y="0" width="1000" height="1000" style="fill:none;"/><clipPath id="_clip1"><rect x="0" y="0" width="1000" height="1000"/></clipPath><g clip-path="url(#_clip1)"><g><path d="M500,-0l-433.013,250l0,500l216.507,125l433.012,-0l0,-250l216.507,-125l-216.507,-125l0,-250l-216.506,-125Z" style="fill:#adfd2d;"/><path d="M716.506,125l-72.168,-41.667l288.675,166.667l-0,500l-433.013,250l-216.506,-125l-0,-250l433.012,-250l0,-250Zm-216.506,750l-108.253,-62.5l-0,-125l108.253,-62.5l108.253,62.5l0,125l-108.253,62.5Zm-0,-500l-108.253,-62.5l-0,-125l108.253,-62.5l108.253,62.5l0,125l-108.253,62.5Z" style="fill:#010001;"/></g></g></svg>