<?xml version="1.0" encoding="UTF-8" standalone="no"?><!DOCTYPE svg PUBLIC "-//W3C//DTD SVG 1.1//EN" "http://www.w3.org/Graphics/SVG/1.1/DTD/svg11.dtd"><svg width="100%" height="100%" viewBox="0 0 1084 1084" version="1.1" xmlns="http://www.w3.org/2000/svg" xmlns:xlink="http://www.w3.org/1999/xlink" xml:space="preserve" xmlns:serif="http://www.serif.com/" style="fill-rule:evenodd;clip-rule:evenodd;stroke-linecap:round;stroke-miterlimit:1.5;"><rect id="ambition_sharp_gradient_border" x="0" y="0" width="1083.33" height="1083.33" style="fill:none;"/><clipPath id="_clip1"><rect x="0" y="0" width="1083.33" height="1083.33"/></clipPath><g clip-path="url(#_clip1)"><path d="M541.667,41.667l-433.013,250l-0,500l433.013,250l433.012,-250l0,-500l-433.012,-250Z" style="fill:url(#_Linear2);stroke:url(#_Linear3);stroke-width:72.08px;"/><path d="M758.173,166.667l-72.169,-41.667l288.675,166.667l0,500l-433.012,250l-216.507,-125l0,-250l433.013,-250l0,-250Zm-216.506,750l-108.254,-62.5l0,-125l108.254,-62.5l108.253,62.5l-0,125l-108.253,62.5Zm-0,-500l-108.254,-62.5l0,-125l108.254,-62.5l108.253,62.5l-0,125l-108.253,62.5Z" style="fill:#010001;"/></g><defs><linearGradient id="_Linear2" x1="0" y1="0" x2="1" y2="0" gradientUnits="userSpaceOnUse" gradientTransform="matrix(866.025,0,0,1000,108.654,541.667)"><stop offset="0" style="stop-color:#e2ff70;stop-opacity:1"/><stop offset="0.25" style="stop-color:#adff2f;stop-opacity:1"/><stop offset="0.5" style="stop-color:#adff2f;stop-opacity:1"/><stop offset="0.75" style="stop-color:#7ae105;stop-opacity:1"/><stop offset="1" style="stop-color:#56b007;stop-opacity:1"/></linearGradient><linearGradient id="_Linear3" x1="0" y1="0" x2="1" y2="0" gradientUnits="userSpaceOnUse" gradientTransform="matrix(866.025,0,0,1000,108.654,541.667)"><stop offset="0" style="stop-color:#e2ff70;stop-opacity:1"/><stop offset="0.25" style="stop-color:#adff2f;stop-opacity:1"/><stop offset="0.5" style="stop-color:#adff2f;stop-opacity:1"/><stop offset="0.75" style="stop-color:#7ae105;stop-opacity:1"/><stop offset="1" style="stop-color:#56b007;stop-opacity:1"/></linearGradient></defs></svg>