<?xml version="1.0" encoding="UTF-8" standalone="no"?><!DOCTYPE svg PUBLIC "-//W3C//DTD SVG 1.1//EN" "http://www.w3.org/Graphics/SVG/1.1/DTD/svg11.dtd"><svg width="100%" height="100%" viewBox="0 0 1000 1000" version="1.1" xmlns="http://www.w3.org/2000/svg" xmlns:xlink="http://www.w3.org/1999/xlink" xml:space="preserve" xmlns:serif="http://www.serif.com/" style="fill-rule:evenodd;clip-rule:evenodd;stroke-linejoin:round;stroke-miterlimit:2;"><rect id="ambition_round_flat_clean" x="0" y="0" width="1000" height="1000" style="fill:none;"/><path d="M525,14.434c-15.47,-8.932 -34.53,-8.932 -50,-0c-76.453,44.14 -306.56,176.992 -383.013,221.132c-15.47,8.932 -25,25.438 -25,43.302l0,442.264c0,17.864 9.53,34.37 25,43.302l220.374,127.233c4.728,2.729 10.091,4.166 15.55,4.166c43.997,0 250.077,0 325.104,0c17.073,0 32.966,-8.711 42.15,-23.103c40.864,-64.039 156.092,-244.611 209.73,-328.667c7.341,-11.503 9.661,-25.507 6.422,-38.763c-3.238,-13.256 -11.754,-24.612 -23.571,-31.435c-44.426,-25.649 -110.555,-63.829 -146.24,-84.431c-15.47,-8.932 -25,-25.438 -25,-43.302c0,-48.112 0,-144.152 0,-192.264c0,-17.864 -9.53,-34.37 -25,-43.302c-41.666,-24.056 -124.839,-72.076 -166.506,-96.132Z" style="fill:#adfd2d;"/><path d="M716.506,153.868c0,-17.864 -9.53,-34.37 -25,-43.302c-20.85,-12.038 -47.168,-27.233 -47.168,-27.233l263.675,152.233c15.47,8.932 25,25.438 25,43.302c-0,88.28 -0,353.984 -0,442.264c-0,17.864 -9.53,34.37 -25,43.302c-76.453,44.14 -306.56,176.992 -383.013,221.132c-15.47,8.932 -34.53,8.932 -50,0c-41.667,-24.056 -124.84,-72.076 -166.506,-96.132c-15.47,-8.932 -25,-25.438 -25,-43.302l-0,-192.264c-0,-17.864 9.53,-34.37 25,-43.302c76.452,-44.14 306.56,-176.992 383.012,-221.132c15.47,-8.932 25,-25.438 25,-43.302c0,-48.112 0,-144.152 0,-192.264Zm-191.506,706.698c-15.47,8.932 -34.53,8.932 -50,0c-17.491,-10.098 -40.762,-23.534 -58.253,-33.632c-15.47,-8.932 -25,-25.438 -25,-43.302l-0,-67.264c-0,-17.864 9.53,-34.37 25,-43.302c17.491,-10.098 40.762,-23.534 58.253,-33.632c15.47,-8.932 34.53,-8.932 50,-0c17.491,10.098 40.762,23.534 58.253,33.632c15.47,8.932 25,25.438 25,43.302l0,67.264c0,17.864 -9.53,34.37 -25,43.302c-17.491,10.098 -40.762,23.534 -58.253,33.632Zm0,-500c-15.47,8.932 -34.53,8.932 -50,0c-17.491,-10.098 -40.762,-23.534 -58.253,-33.632c-15.47,-8.932 -25,-25.438 -25,-43.302l-0,-67.264c-0,-17.864 9.53,-34.37 25,-43.302c17.491,-10.098 40.762,-23.534 58.253,-33.632c15.47,-8.932 34.53,-8.932 50,-0c17.491,10.098 40.762,23.534 58.253,33.632c15.47,8.932 25,25.438 25,43.302l0,67.264c0,17.864 -9.53,34.37 -25,43.302c-17.491,10.098 -40.762,23.534 -58.253,33.632Z" style="fill:#010001;"/></svg>