<?xml version="1.0" encoding="UTF-8" standalone="no"?><!DOCTYPE svg PUBLIC "-//W3C//DTD SVG 1.1//EN" "http://www.w3.org/Graphics/SVG/1.1/DTD/svg11.dtd"><svg width="100%" height="100%" viewBox="0 0 1000 1000" version="1.1" xmlns="http://www.w3.org/2000/svg" xmlns:xlink="http://www.w3.org/1999/xlink" xml:space="preserve" xmlns:serif="http://www.serif.com/" style="fill-rule:evenodd;clip-rule:evenodd;stroke-linejoin:round;stroke-miterlimit:2;"><rect id="avatar_mlm_sharp_flat" x="0" y="0" width="1000" height="1000" style="fill:none;"/><clipPath id="_clip1"><rect x="0" y="0" width="1000" height="1000"/></clipPath><g clip-path="url(#_clip1)"><g><path d="M500,-0l433.013,250l-0,500l-108.253,62.5l-649.52,-0l-108.253,-62.5l0,-500l433.013,-250Z" style="fill:#7f8076;"/><g id="body"><path d="M175.24,812.5l216.507,-125l216.506,-0l216.507,125l-324.76,187.5l-324.76,-187.5Z" style="fill:#0a0a0a;"/><path d="M247.409,770.833l-36.084,-20.833l-0,-166.667l72.169,-41.666l180.422,104.166l-216.507,125Z" style="fill:#010001;"/><path d="M391.747,770.833l72.169,41.667l-0,83.333l36.084,20.834l36.084,-20.834l0,-83.333l72.169,-41.667l0,-83.333l-216.506,-0l-0,83.333Z" style="fill:#ebebe2;"/></g><path id="head" d="M500,250l216.506,125l0,250l-216.506,125l-180.422,-104.167l0,-291.666l180.422,-104.167Z" style="fill:#fff;"/><g id="hair"><path d="M283.494,291.667l216.506,-125l288.675,166.666l0,416.667l-36.084,20.833l-0,83.334l-180.422,104.166l-0,-250l72.169,-41.666l-0,-250l-72.169,-41.667l-0,-83.333l-72.169,-41.667l-180.422,104.167l0,291.666l72.169,41.667l-72.169,41.667l-36.084,-20.834l-0,-416.666Z" style="fill:#2f150d;"/></g><g id="shadow"><path d="M500,750l144.338,-83.333l-0,-250l-72.169,-41.667l-0,-83.333l-72.169,-41.667l0,500Z" style="fill-opacity:0.12;"/><path d="M500,916.667l36.084,-20.834l0,-83.333l36.085,-20.833l-0,-83.334l-72.169,41.667l0,166.667Z" style="fill-opacity:0.12;"/><path d="M500,1000l-324.76,-187.5l216.507,-125l-0,83.333l72.169,41.667l-0,83.333l36.084,20.834l-0,83.333Z" style="fill:#fff;fill-opacity:0.12;"/><path d="M500,250l-0,-83.333l288.675,166.666l0,416.667l-36.084,20.833l-0,83.334l-180.422,104.166l-0,-250l72.169,-41.666l-0,-250l-72.169,-41.667l-0,-83.333l-72.169,-41.667Z" style="fill-opacity:0.12;"/></g></g></g></svg>