<?xml version="1.0" encoding="UTF-8" standalone="no"?><!DOCTYPE svg PUBLIC "-//W3C//DTD SVG 1.1//EN" "http://www.w3.org/Graphics/SVG/1.1/DTD/svg11.dtd"><svg width="100%" height="100%" viewBox="0 0 1000 1000" version="1.1" xmlns="http://www.w3.org/2000/svg" xmlns:xlink="http://www.w3.org/1999/xlink" xml:space="preserve" xmlns:serif="http://www.serif.com/" style="fill-rule:evenodd;clip-rule:evenodd;stroke-linejoin:round;stroke-miterlimit:2;"><rect id="avatar_otm_round_gradient" x="0" y="0" width="1000" height="1000" style="fill:none;"/><g><path d="M475,14.434c15.47,-8.932 34.53,-8.932 50,-0c76.453,44.14 306.56,176.992 383.013,221.132c15.47,8.932 25,25.438 25,43.302c-0,88.28 -0,353.984 -0,442.264c-0,17.864 -9.53,34.37 -25,43.302c-31.972,18.459 -83.253,48.066 -83.253,48.066l-649.52,-0c0,-0 -51.281,-29.607 -83.253,-48.066c-15.47,-8.932 -25,-25.438 -25,-43.302c0,-88.28 0,-353.984 0,-442.264c0,-17.864 9.53,-34.37 25,-43.302c76.453,-44.14 306.56,-176.992 383.013,-221.132Z" style="fill:#7f8076;"/><g id="body"><path d="M175.24,812.5l216.507,-125l216.506,-0l216.507,125c-0,-0 -223.66,129.13 -299.76,173.066c-15.47,8.932 -34.53,8.932 -50,0c-76.1,-43.936 -299.76,-173.066 -299.76,-173.066Z" style="fill:url(#_Linear1);"/><path d="M391.747,741.966c-0,17.863 9.53,34.369 25,43.301c7.174,4.142 14.995,8.657 22.169,12.799c15.47,8.932 25,25.438 25,43.302l-0,33.633c-0,12.891 6.877,24.803 18.041,31.249c0.001,-0 0.001,0 0.001,0c11.165,6.446 24.919,6.446 36.084,0c0,0 0,-0 0.001,-0c11.164,-6.446 18.041,-18.358 18.041,-31.249c0,-10.17 0,-22.568 0,-33.633c0,-17.864 9.53,-34.37 25,-43.302c7.174,-4.142 14.995,-8.657 22.169,-12.799c15.47,-8.932 25,-25.438 25,-43.301c0,-24.076 0,-54.466 0,-54.466l-216.506,-0c-0,-0 -0,30.39 -0,54.466Z" style="fill:url(#_Linear2);"/></g><path id="head" d="M475,264.434c15.47,-8.932 34.53,-8.932 50,-0c34.411,19.867 96.011,55.432 130.422,75.299c15.47,8.932 25,25.438 25,43.301c-0,55.847 -0,178.085 -0,233.932c-0,17.863 -9.53,34.369 -25,43.301c-34.411,19.867 -96.011,55.432 -130.422,75.299c-15.47,8.932 -34.53,8.932 -50,0c-34.411,-19.867 -96.011,-55.432 -130.422,-75.299c-15.47,-8.932 -25,-25.438 -25,-43.301c0,-55.847 0,-178.085 0,-233.932c0,-17.863 9.53,-34.369 25,-43.301c34.411,-19.867 96.011,-55.432 130.422,-75.299Z" style="fill:url(#_Linear3);"/><g id="hair"><path d="M319.578,341.368c0,-17.864 9.53,-34.37 25,-43.302c34.411,-19.867 96.011,-55.432 130.422,-75.299c15.47,-8.932 34.53,-8.932 50,0c34.411,19.867 96.011,55.432 130.422,75.299c15.47,8.932 25,25.438 25,43.301c-0,47.71 -0,137.8 -0,137.8c-0,-0 -176.761,-102.053 -234.549,-135.417c-11.164,-6.446 -24.919,-6.446 -36.083,-0c-0.001,-0 -0.001,0 -0.002,0c-11.164,6.446 -18.041,18.358 -18.041,31.249l-0,0.002c-0,12.891 -6.878,24.803 -18.042,31.249c-21.376,12.341 -54.127,31.25 -54.127,31.25c0,0 0,-59.215 0,-96.132Z" style="fill:url(#_Linear4);"/><path d="M391.747,374.999c-0,-12.891 6.877,-24.803 18.041,-31.249l0.177,-0.101c11.055,-6.383 24.677,-6.383 35.733,-0c9.079,5.242 18.218,10.518 18.218,10.518c-0,-0 -108.254,-62.5 -108.254,-62.5c0,-0 -4.897,2.827 -11.084,6.399c-15.47,8.932 -25,25.438 -25,43.302c0,7.143 0,12.799 0,12.799l67.335,38.875c-0,0 -0,-0 0.001,-0.002c3.166,-5.484 4.833,-11.705 4.833,-18.037l-0,-0.004Z" style="fill:url(#_Linear5);"/></g></g><defs><linearGradient id="_Linear1" x1="0" y1="0" x2="1" y2="0" gradientUnits="userSpaceOnUse" gradientTransform="matrix(649.519,0,0,312.5,175.24,843.75)"><stop offset="0" style="stop-color:#7d56f3;stop-opacity:1"/><stop offset="0.5" style="stop-color:#5400fc;stop-opacity:1"/><stop offset="1" style="stop-color:#360991;stop-opacity:1"/></linearGradient><linearGradient id="_Linear2" x1="0" y1="0" x2="1" y2="0" gradientUnits="userSpaceOnUse" gradientTransform="matrix(216.506,0,0,229.167,391.747,802.083)"><stop offset="0" style="stop-color:#f5f5ef;stop-opacity:1"/><stop offset="0.33" style="stop-color:#ebebe2;stop-opacity:1"/><stop offset="0.67" style="stop-color:#d3d4c9;stop-opacity:1"/><stop offset="1" style="stop-color:#aaaba0;stop-opacity:1"/></linearGradient><linearGradient id="_Linear3" x1="0" y1="0" x2="1" y2="0" gradientUnits="userSpaceOnUse" gradientTransform="matrix(360.844,0,0,416.667,319.578,541.667)"><stop offset="0" style="stop-color:#fff;stop-opacity:1"/><stop offset="0.33" style="stop-color:#fff;stop-opacity:1"/><stop offset="0.67" style="stop-color:#ebebe2;stop-opacity:1"/><stop offset="1" style="stop-color:#d3d4c9;stop-opacity:1"/></linearGradient><linearGradient id="_Linear4" x1="0" y1="0" x2="1" y2="0" gradientUnits="userSpaceOnUse" gradientTransform="matrix(360.844,0,0,270.833,319.578,343.75)"><stop offset="0" style="stop-color:#5f3908;stop-opacity:1"/><stop offset="1" style="stop-color:#371f05;stop-opacity:1"/></linearGradient><linearGradient id="_Linear5" x1="0" y1="0" x2="1" y2="0" gradientUnits="userSpaceOnUse" gradientTransform="matrix(144.338,0,0,101.376,319.578,342.354)"><stop offset="0" style="stop-color:#371f05;stop-opacity:1"/><stop offset="1" style="stop-color:#5f3908;stop-opacity:1"/></linearGradient></defs></svg>