<?xml version="1.0" encoding="UTF-8" standalone="no"?><!DOCTYPE svg PUBLIC "-//W3C//DTD SVG 1.1//EN" "http://www.w3.org/Graphics/SVG/1.1/DTD/svg11.dtd"><svg width="100%" height="100%" viewBox="0 0 1000 1000" version="1.1" xmlns="http://www.w3.org/2000/svg" xmlns:xlink="http://www.w3.org/1999/xlink" xml:space="preserve" xmlns:serif="http://www.serif.com/" style="fill-rule:evenodd;clip-rule:evenodd;stroke-linejoin:round;stroke-miterlimit:2;"><rect id="avatar_fag_round_gradient" x="0" y="0" width="1000" height="1000" style="fill:none;"/><g><path d="M475,14.434c15.47,-8.932 34.53,-8.932 50,-0c76.453,44.14 306.56,176.992 383.013,221.132c15.47,8.932 25,25.438 25,43.302l-0,442.264c-0,17.864 -9.53,34.37 -25,43.302c-31.972,18.459 -83.253,48.066 -83.253,48.066l-649.52,-0c0,-0 -51.281,-29.607 -83.253,-48.066c-15.47,-8.932 -25,-25.438 -25,-43.302c0,-88.28 0,-353.984 0,-442.264c0,-17.864 9.53,-34.37 25,-43.302c76.453,-44.14 306.56,-176.992 383.013,-221.132Z" style="fill:#7f8076;"/><g id="body"><path d="M175.24,812.5l216.507,-125l216.506,-0l216.507,125c-0,-0 -223.66,129.13 -299.76,173.066c-15.47,8.932 -34.53,8.932 -50,0c-76.1,-43.936 -299.76,-173.066 -299.76,-173.066Z" style="fill:url(#_Linear1);"/><path d="M319.578,729.167c0,-0 105.884,61.132 155.422,89.733c15.47,8.931 34.53,8.931 50,-0c49.538,-28.601 155.422,-89.733 155.422,-89.733l-72.169,-41.667l-216.506,-0l-72.169,41.667Z" style="fill:url(#_Linear2);"/></g><path id="head" d="M475,360.566c15.47,8.932 34.53,8.932 50,0c31.972,-18.459 83.253,-48.066 83.253,-48.066c0,0 51.282,29.607 83.253,48.066c15.47,8.932 25,25.438 25,43.302c0,48.112 0,144.152 0,192.264c0,17.864 -9.53,34.37 -25,43.302c-41.666,24.056 -124.839,72.076 -166.506,96.132c-15.47,8.932 -34.53,8.932 -50,0c-41.667,-24.056 -124.84,-72.076 -166.506,-96.132c-15.47,-8.932 -25,-25.438 -25,-43.302l-0,-192.264c-0,-17.864 9.53,-34.37 25,-43.302c31.971,-18.459 83.253,-48.066 83.253,-48.066c-0,0 51.281,29.607 83.253,48.066Z" style="fill:url(#_Linear3);"/><g id="hair"><path d="M475,139.434c15.47,-8.932 34.53,-8.932 50,-0c7.174,4.142 14.995,8.657 22.169,12.799c15.47,8.932 25,25.438 25,43.301l-0,25.598c-0,17.864 -9.53,34.37 -25,43.302c-7.174,4.142 -14.995,8.657 -22.169,12.799c-15.47,8.932 -34.53,8.932 -50,-0c-7.174,-4.142 -14.995,-8.657 -22.169,-12.799c-15.47,-8.932 -25,-25.438 -25,-43.302c0,-8.283 0,-17.314 0,-25.598c0,-17.863 9.53,-34.369 25,-43.301c7.174,-4.142 14.995,-8.657 22.169,-12.799Z" style="fill:url(#_Linear4);"/><path d="M391.747,312.5c-0,-0 51.281,-29.607 83.253,-48.066c15.47,-8.932 34.53,-8.932 50,-0c31.972,18.459 83.253,48.066 83.253,48.066c0,-0 -51.281,29.607 -83.253,48.066c-15.47,8.932 -34.53,8.932 -50,0c-31.972,-18.459 -83.253,-48.066 -83.253,-48.066Z" style="fill:url(#_Linear5);"/></g></g><defs><linearGradient id="_Linear1" x1="0" y1="0" x2="1" y2="0" gradientUnits="userSpaceOnUse" gradientTransform="matrix(649.519,0,0,312.5,175.24,843.75)"><stop offset="0" style="stop-color:#2a2b26;stop-opacity:1"/><stop offset="1" style="stop-color:#0a0a0a;stop-opacity:1"/></linearGradient><linearGradient id="_Linear2" x1="0" y1="0" x2="1" y2="0" gradientUnits="userSpaceOnUse" gradientTransform="matrix(360.844,0,0,145.833,319.578,760.417)"><stop offset="0" style="stop-color:#f5f5ef;stop-opacity:1"/><stop offset="0.33" style="stop-color:#ebebe2;stop-opacity:1"/><stop offset="0.67" style="stop-color:#d3d4c9;stop-opacity:1"/><stop offset="1" style="stop-color:#aaaba0;stop-opacity:1"/></linearGradient><linearGradient id="_Linear3" x1="0" y1="0" x2="1" y2="0" gradientUnits="userSpaceOnUse" gradientTransform="matrix(433.013,0,0,500,283.494,500)"><stop offset="0" style="stop-color:#fff;stop-opacity:1"/><stop offset="0.33" style="stop-color:#fff;stop-opacity:1"/><stop offset="0.67" style="stop-color:#ebebe2;stop-opacity:1"/><stop offset="1" style="stop-color:#d3d4c9;stop-opacity:1"/></linearGradient><linearGradient id="_Linear4" x1="0" y1="0" x2="1" y2="0" gradientUnits="userSpaceOnUse" gradientTransform="matrix(144.338,0,0,166.667,427.831,208.333)"><stop offset="0" style="stop-color:#5f3908;stop-opacity:1"/><stop offset="1" style="stop-color:#533207;stop-opacity:1"/></linearGradient><linearGradient id="_Linear5" x1="0" y1="0" x2="1" y2="0" gradientUnits="userSpaceOnUse" gradientTransform="matrix(216.506,0,0,125,391.747,312.5)"><stop offset="0" style="stop-color:#8f5c0b;stop-opacity:1"/><stop offset="1" style="stop-color:#7e510a;stop-opacity:1"/></linearGradient></defs></svg>