<?xml version="1.0" encoding="UTF-8" standalone="no"?>
<!DOCTYPE svg PUBLIC "-//W3C//DTD SVG 1.1//EN" "http://www.w3.org/Graphics/SVG/1.1/DTD/svg11.dtd">
<svg width="100%" height="100%" viewBox="0 0 19 19" version="1.1" xmlns="http://www.w3.org/2000/svg" xmlns:xlink="http://www.w3.org/1999/xlink" xml:space="preserve" xmlns:serif="http://www.serif.com/" style="fill-rule:evenodd;clip-rule:evenodd;stroke-linejoin:round;stroke-miterlimit:2;">
    <g id="male">
        <g transform="matrix(1,0,0,1,-3,-3)">
            <path d="M17,21L12,21L12,13L11,13L11,21L6,21L6,15L5,15L5,14L4,14L4,11L5,11L5,10L6,10L6,4L20,4L20,9L19,9L19,10L17,10L17,21ZM4,4L4,10L5,10L5,4L4,4Z" style="fill:rgb(165,128,85);"/>
        </g>
        <g transform="matrix(1,0,0,1,1,1)">
            <path d="M7,9L7,17L8,17L8,9L7,9ZM13,0L14,0L14,6L15,6L15,7L14,7L14,17L13,17L13,0ZM1,11L1,17L2,17L2,11L1,11ZM1,10L0,10L0,11L1,11L1,10ZM0,7L0,10L0,7ZM1,6L0,6L0,7L1,7L1,6ZM16,5L15,5L15,6L16,6L16,5ZM2,6L2,0L1,0L1,6L2,6ZM16,0L16,5L17,5L17,0L16,0ZM1,0L0,0L1,0Z"/>
        </g>
    </g>
    <g id="penis">
        <g transform="matrix(1,0,0,1,-3,-3)">
            <path d="M12,11L13,11L13,13L14,13L14,10L13,10L13,9L12,9L12,11ZM10,12L11,12L11,13L12,13L12,11L10,11L10,12Z" style="fill:rgb(165,128,85);"/>
        </g>
        <g transform="matrix(1,0,0,1,-3,-3)">
            <rect x="13" y="13" width="1" height="1" style="fill:rgb(123,77,27);"/>
        </g>
        <g transform="matrix(1,0,0,1,-3,-3)">
            <path d="M14,14L13,14L13,15L14,15L14,14ZM11,14L13,14L13,11L12,11L12,13L11,13L11,14ZM15,14L15,10L14,10L14,14L15,14ZM11,12L10,12L10,13L11,13L11,12ZM12,10L11,10L11,11L12,11L12,10ZM14,9L13,9L13,10L14,10L14,9Z"/>
        </g>
    </g>
    <g id="frame">
        <g transform="matrix(1,0,0,1,-3,-3)">
            <path d="M6,19L5,19L5,20L6,20L6,19ZM8,19L7,19L7,20L8,20L8,19ZM19,18L18,18L18,19L19,19L19,18ZM6,17L5,17L5,18L6,18L6,17ZM19,7L19,9L20,9L20,7L19,7ZM7,6L6,6L6,7L7,7L7,6ZM18,5L17,5L17,6L18,6L18,5ZM20,5L19,5L19,6L20,6L20,5Z" style="fill:white;"/>
        </g>
        <g transform="matrix(1,0,0,1,-3,-3)">
            <path d="M20,19L19,19L19,20L20,20L20,19ZM18,15L19,15L19,17L18,17L18,18L20,18L20,13L19,13L19,14L18,14L18,15ZM19,12L18,12L18,13L19,13L19,12ZM18,11L19,11L19,12L20,12L20,9L19,9L19,10L18,10L18,11ZM17,7L18,7L18,8L19,8L19,6L17,6L17,7ZM7,6L10,6L10,7L11,7L11,6L12,6L12,5L7,5L7,6ZM13,6L12,6L12,7L13,7L13,6ZM13,6L14,6L14,7L15,7L15,6L17,6L17,5L13,5L13,6ZM6,5L5,5L5,6L6,6L6,5Z" style="fill:rgb(255,211,0);"/>
        </g>
        <g transform="matrix(1,0,0,1,-3,-3)">
            <path d="M4,19L4,21L6,21L6,20L5,20L5,19L4,19ZM7,21L12,21L12,20L7,20L7,21ZM13,21L18,21L18,20L13,20L13,21ZM20,20L19,20L19,21L20,21L20,20ZM13,19L12,19L12,20L13,20L13,19ZM19,19L18,19L18,20L19,20L19,19ZM7,19L6,19L6,20L7,20L7,19ZM15,19L17,19L17,18L15,18L15,19ZM6,18L5,18L5,19L6,19L6,18ZM8,19L10,19L10,18L8,18L8,19ZM12,18L11,18L11,19L12,19L12,18ZM14,18L13,18L13,19L14,19L14,18ZM4,13L4,18L5,18L5,13L4,13ZM18,15L18,17L19,17L19,15L18,15ZM6,15L6,17L7,17L7,15L6,15ZM19,13L18,13L18,14L19,14L19,13ZM7,13L6,13L6,14L7,14L7,13ZM6,12L5,12L5,13L6,13L6,12ZM20,12L19,12L19,13L20,13L20,12ZM7,11L6,11L6,12L7,12L7,11ZM19,11L18,11L18,12L19,12L19,11ZM4,7L4,12L5,12L5,7L4,7ZM6,8L6,10L7,10L7,8L6,8ZM18,8L18,10L19,10L19,8L18,8ZM6,6L5,6L5,7L6,7L6,6ZM8,7L10,7L10,6L8,6L8,7ZM12,6L11,6L11,7L12,7L12,6ZM14,6L13,6L13,7L14,7L14,6ZM15,7L17,7L17,6L15,6L15,7ZM7,5L6,5L6,6L7,6L7,5ZM13,5L12,5L12,6L13,6L13,5ZM5,5L4,5L4,6L5,6L5,5Z" style="fill:rgb(197,116,7);"/>
        </g>
        <g transform="matrix(1,0,0,1,-3,-3)">
            <path d="M21,21L21,19L20,19L20,21L21,21ZM10,19L8,19L8,20L12,20L12,19L11,19L11,18L10,18L10,19ZM14,19L13,19L13,20L18,20L18,18L17,18L17,19L15,19L15,18L14,18L14,19ZM13,18L12,18L12,19L13,19L13,18ZM6,17L6,19L8,19L8,18L7,18L7,17L6,17ZM20,18L19,18L19,19L20,19L20,18ZM21,18L21,13L20,13L20,18L21,18ZM6,17L6,15L7,15L7,14L6,14L6,13L5,13L5,17L6,17ZM7,12L6,12L6,13L7,13L7,12ZM6,12L6,11L7,11L7,10L6,10L6,8L7,8L7,7L5,7L5,12L6,12ZM21,12L21,7L20,7L20,12L21,12ZM8,6L7,6L7,7L8,7L8,6ZM20,6L19,6L19,7L20,7L20,6ZM19,6L19,5L20,5L20,6L21,6L21,4L19,4L19,5L18,5L18,6L19,6ZM6,4L4,4L4,5L6,5L6,4ZM12,4L7,4L7,5L12,5L12,4ZM18,4L13,4L13,5L18,5L18,4Z" style="fill:rgb(255,177,0);"/>
        </g>
        <g transform="matrix(1,0,0,1,-3,-3)">
            <path d="M3,19L3,22L6,22L6,21L4,21L4,19L3,19ZM7,22L12,22L12,21L7,21L7,22ZM13,22L18,22L18,21L13,21L13,22ZM21,19L21,21L19,21L19,22L22,22L22,19L21,19ZM7,20L6,20L6,21L7,21L7,20ZM13,20L12,20L12,21L13,21L13,20ZM19,20L18,20L18,21L19,21L19,20ZM5,18L4,18L4,19L5,19L5,18ZM21,18L20,18L20,19L21,19L21,18ZM7,7L18,7L18,18L7,18L7,7ZM4,18L4,13L3,13L3,18L4,18ZM22,18L22,13L21,13L21,18L22,18ZM17,8L8,8L8,17L17,17L17,8ZM5,12L4,12L4,13L5,13L5,12ZM21,12L20,12L20,13L21,13L21,12ZM4,12L4,7L3,7L3,12L4,12ZM22,12L22,7L21,7L21,12L22,12ZM5,6L4,6L4,7L5,7L5,6ZM21,6L20,6L20,7L21,7L21,6ZM6,3L3,3L3,6L4,6L4,4L6,4L6,3ZM19,5L19,4L21,4L21,6L22,6L22,3L19,3L19,4L18,4L18,5L19,5ZM7,4L6,4L6,5L7,5L7,4ZM13,4L12,4L12,5L13,5L13,4ZM12,3L7,3L7,4L12,4L12,3ZM18,3L13,3L13,4L18,4L18,3Z"/>
        </g>
    </g>
</svg>
