<?xml version="1.0" encoding="UTF-8"?>
<svg width="89px" height="104px" viewBox="0 0 89 104" version="1.1" xmlns="http://www.w3.org/2000/svg" xmlns:xlink="http://www.w3.org/1999/xlink">
    <!-- Generator: Sketch 50 (54983) - http://www.bohemiancoding.com/sketch -->
    <title>Group 2</title>
    <desc>Created with Sketch.</desc>
    <defs></defs>
    <g id="Page-1" stroke="none" stroke-width="1" fill="none" fill-rule="evenodd">
        <g id="Desktop" transform="translate(-468.000000, -124.000000)">
            <g id="Group-2" transform="translate(469.000000, 126.000000)">
                <polygon id="Polygon-1" stroke="#000000" stroke-width="2" fill="#FFFFFF" points="43.5 0 86.8012702 25 86.8012702 75 43.5 100 0.198729811 75 0.198729811 25"></polygon>
                <polygon id="Polygon-1" fill="#000000" points="43.5 12.5 54.3253175 18.75 54.3253175 31.25 43.5 37.5 32.6746825 31.25 32.6746825 18.75"></polygon>
                <path d="M43.5,100 L0.198729811,75 L0.198729811,25 L21.8493649,12.5 L21.8493649,37.5 L43.5,50 L65.1506351,62.5 L65.1506351,87.5 L43.5,100 Z M43.5,62.5 L32.6746825,68.75 L32.6746825,81.25 L43.5,87.5 L54.3253175,81.25 L54.3253175,68.75 L43.5,62.5 Z" id="Combined-Shape" fill="#000000"></path>
            </g>
        </g>
    </g>
</svg>