<?xml version="1.0" encoding="UTF-8"?>
<svg width="257px" height="142px" viewBox="0 0 257 142" version="1.1" xmlns="http://www.w3.org/2000/svg" xmlns:xlink="http://www.w3.org/1999/xlink">
    <!-- Generator: Sketch 50 (54983) - http://www.bohemiancoding.com/sketch -->
    <title>bleepbloop</title>
    <desc>Created with Sketch.</desc>
    <defs></defs>
    <g id="Page-1" stroke="none" stroke-width="1" fill="none" fill-rule="evenodd">
        <g id="Desktop" transform="translate(-384.000000, -309.000000)" fill="#FFFFFF" fill-rule="nonzero" stroke="#000000" stroke-width="2">
            <g id="menu-title" transform="translate(385.000000, 310.000000)">
                <g id="bleepbloop">
                    <path d="M35.375,21.9 C35.375,17.83 34.038,14.56 31.365,12.087 C28.655,9.594 25.123,8.347 20.775,8.347 L0.196,8.347 L0.196,66.234 L18.77,66.234 C25.054,66.234 30.05,64.739 33.76,61.747 C37.43,58.735 39.264,54.687 39.264,49.601 C39.264,45.454 38.137,42.173 35.884,39.761 L35.464,39.341 C33.191,37.187 29.91,35.791 25.622,35.153 C28.892,33.797 31.346,32.013 32.982,29.798 C34.577,27.584 35.375,24.952 35.375,21.9 Z M13.685,19.595 L16.2,19.595 C18.053,19.595 19.44,20.025 20.357,20.882 C21.274,21.72 21.733,22.976 21.733,24.652 C21.733,26.506 21.155,27.962 19.998,29.019 C18.801,30.075 17.196,30.604 15.182,30.604 L13.686,30.604 L13.685,19.595 Z M13.685,41.345 L18.025,41.345 C20.157,41.345 21.942,41.963 23.378,43.199 C24.814,44.415 25.532,46.049 25.532,48.104 C25.532,50.099 24.834,51.734 23.438,53.011 C22.002,54.247 20.198,54.865 18.024,54.865 L13.686,54.865 L13.685,41.345 Z" id="B"></path>
                    <polygon id="L" points="57.99 0.03 44.47 0.03 44.47 57.92 76.57 57.92 76.57 46.1 57.99 46.1"></polygon>
                    <polygon id="E2" points="112.826 20.015 112.826 8.347 79.83 8.347 79.83 66.234 112.826 66.234 112.826 54.418 93.32 54.418 93.32 41.973 111.48 41.973 111.48 30.693 93.32 30.693 93.32 20.016 112.826 20.016"></polygon>
                    <polygon id="E3" points="152.614 11.698 152.614 0.03 119.617 0.03 119.617 57.92 152.614 57.92 152.614 46.1 133.11 46.1 133.11 33.657 151.268 33.657 151.268 22.378 133.108 22.378 133.108 11.698 152.614 11.698"></polygon>
                    <path d="M191.953,12.685 C189.023,9.793 184.893,8.347 179.568,8.347 L158.926,8.347 L158.926,66.234 L172.538,66.234 L172.538,43.29 L177.115,43.29 C181.822,43.29 185.721,42.282 188.812,40.267 C191.904,38.213 193.938,35.82 194.915,33.087 C195.872,30.317 196.351,27.573 196.351,24.861 C196.35,19.566 194.885,15.517 191.953,12.685 Z M181.274,20.973 C181.834,21.531 182.242,22.259 182.501,23.157 C182.661,23.815 182.741,24.553 182.741,25.37 C182.741,27.444 182.091,29.06 180.796,30.216 C179.48,31.353 177.724,31.921 175.531,31.921 L172.539,31.921 L172.539,19.507 L176.727,19.507 C178.722,19.507 180.237,19.997 181.274,20.973 Z" id="P"></path>
                    <path d="M79.65,94.744 C79.65,90.674 78.314,87.404 75.64,84.932 C72.93,82.439 69.4,81.192 65.05,81.192 L44.47,81.192 L44.47,139.079 L63.047,139.079 C65.937,139.079 68.571,138.759 70.944,138.121 C73.677,137.383 76.04,136.206 78.034,134.591 C80.707,132.397 82.412,129.655 83.15,126.364 C83.41,125.127 83.54,123.821 83.54,122.444 C83.54,118.297 82.412,115.016 80.158,112.604 C77.885,110.209 74.464,108.674 69.898,107.996 C73.168,106.639 75.621,104.854 77.258,102.641 C78.852,100.427 79.65,97.794 79.65,94.743 L79.65,94.744 Z M57.96,92.44 L60.474,92.44 C62.329,92.44 63.714,92.87 64.632,93.727 C65.55,94.564 66.008,95.821 66.008,97.497 C66.008,99.351 65.43,100.807 64.273,101.864 C63.077,102.921 61.471,103.449 59.457,103.449 L57.96,103.449 L57.96,92.44 Z M62.3,114.189 C64.433,114.189 66.218,114.806 67.654,116.043 C69.09,117.26 69.808,118.895 69.808,120.949 C69.808,122.943 69.11,124.579 67.713,125.855 C66.278,127.092 64.473,127.71 62.299,127.71 L57.959,127.71 L57.959,114.19 L62.3,114.189 Z" id="B1"></path>
                    <polygon id="L1" points="102.236 72.906 88.714 72.906 88.714 130.792 120.814 130.792 120.814 118.976 102.236 118.976 102.236 72.906"></polygon>
                    <path d="M164.43,102.91 C163.633,96.948 161.758,92.032 158.807,88.163 C154.757,82.897 149.234,80.265 142.233,80.265 C138.703,80.265 135.323,81.481 132.093,83.915 C128.841,86.308 126.318,89.848 124.523,94.535 C122.728,99.181 121.831,104.437 121.831,110.3 C121.831,111.736 121.891,113.142 122.011,114.518 C122.531,121.12 124.315,126.774 127.366,131.48 C129.301,134.492 131.674,136.706 134.486,138.122 C136.979,139.378 139.801,140.006 142.952,140.006 C146.065,140.006 148.897,139.378 151.45,138.122 C154.202,136.766 156.635,134.662 158.75,131.81 C162.817,126.345 164.852,119.016 164.852,109.82 C164.852,107.368 164.712,105.065 164.432,102.91 L164.43,102.91 Z M151.092,105.633 C151.19,106.93 151.24,108.326 151.24,109.821 C151.24,115.227 150.512,119.545 149.056,122.776 C147.58,126.006 145.626,127.622 143.193,127.622 C140.741,127.622 138.826,126.068 137.45,122.956 C136.054,119.846 135.346,115.626 135.326,110.302 L135.326,109.942 C135.326,104.538 136.044,100.27 137.48,97.139 C138.916,94.009 140.99,92.442 143.702,92.442 C145.776,92.442 147.56,93.948 149.056,96.96 C150.113,99.154 150.791,102.045 151.091,105.635 L151.092,105.633 Z" id="O1"></path>
                    <path d="M211.638,97.526 C211.098,90.246 209.125,84.363 205.715,79.876 C201.665,74.611 196.142,71.978 189.141,71.978 C185.611,71.978 182.231,73.195 179.001,75.628 C175.751,78.021 173.227,81.561 171.431,86.248 C169.637,90.895 168.741,96.15 168.741,102.013 L168.741,102.253 C168.781,110.609 170.624,117.59 174.274,123.193 C177.944,128.878 183.139,131.72 189.86,131.72 C196.34,131.72 201.606,128.987 205.655,123.523 C209.723,118.058 211.758,110.729 211.758,101.535 C211.758,100.159 211.718,98.822 211.638,97.525 L211.638,97.526 Z M198.056,98.425 C198.116,99.401 198.146,100.438 198.146,101.535 C198.146,106.94 197.418,111.257 195.962,114.488 C194.486,117.718 192.532,119.335 190.099,119.335 C187.645,119.335 185.729,117.779 184.354,114.668 C182.938,111.498 182.23,107.158 182.23,101.654 C182.23,101.136 182.24,100.637 182.26,100.159 C182.38,95.451 183.088,91.682 184.385,88.849 C185.821,85.719 187.895,84.153 190.607,84.153 C192.681,84.153 194.467,85.659 195.962,88.67 C197.139,91.084 197.837,94.335 198.056,98.424 L198.056,98.425 Z" id="O2"></path>
                    <path d="M249.953,85.685 C247.023,82.793 242.893,81.347 237.568,81.347 L216.926,81.347 L216.926,139.234 L230.538,139.234 L230.538,116.29 L235.115,116.29 C239.822,116.29 243.721,115.282 246.812,113.267 C249.904,111.213 251.938,108.82 252.915,106.087 C253.872,103.317 254.351,100.573 254.351,97.861 C254.35,92.566 252.885,88.517 249.953,85.685 Z M239.274,93.973 C239.834,94.531 240.242,95.259 240.501,96.157 C240.661,96.815 240.741,97.553 240.741,98.37 C240.741,100.444 240.091,102.06 238.796,103.216 C237.48,104.353 235.724,104.921 233.531,104.921 L230.539,104.921 L230.539,92.507 L234.727,92.507 C236.722,92.507 238.237,92.997 239.274,93.973 Z" id="P"></path>
                </g>
            </g>
        </g>
    </g>
</svg>